# xmcd CD database file
#
# Track frame offsets:
#	150
#	22276
#	49764
#	76612
#	90517
#	122269
#	158884
#	185085
#	211191
#	234696
#	262512
#
# Disc length: 4089 seconds
#
# Revision: 0
# Processed by: cddbd v1.5.2PL0 Copyright (c) Steve Scherf et al.
# Submitted via: CDex 1.70beta2
#
DISCID=800ff70b
DTITLE=Zzaj - In A Lifetime
DYEAR=2002
DGENRE=Jazz
TTITLE0=Nite Walk
TTITLE1=Forbidden Happiness
TTITLE2=Julia
TTITLE3=Talk Some Talk
TTITLE4=Not Forgotten
TTITLE5=Seaport Village
TTITLE6=In A Lifetime
TTITLE7=YLLA Eyes
TTITLE8=Short Quarks
TTITLE9=Oh I Wish
TTITLE10=C-Ya
EXTD=YEAR: 2002
EXTT0=
EXTT1=
EXTT2=
EXTT3=
EXTT4=
EXTT5=
EXTT6=
EXTT7=
EXTT8=
EXTT9=
EXTT10=
PLAYORDER=
